<svg width="47" height="47" viewBox="0 0 47 47" fill="none" xmlns="http://www.w3.org/2000/svg">
<rect width="47" height="47" fill="#151515"/>
<rect x="0.5" y="0.5" width="46" height="46" stroke="black" stroke-opacity="0.05"/>
<path d="M8 35.5V11.5H24.5664V35.5H8ZM22.2938 19.592H23.7805V17.1708H17.6425V19.592H19.6389V25.369H19.554L12.5876 17.1708H8.82832V19.592H10.5487V28.5549H9.06195V30.9761H15.115V28.5549H13.2035V22.2257H13.2885L20.7009 30.9973L22.2938 30.9761V19.592Z" fill="#222222"/>
<path d="M8 35.5V11.5H24.5664V35.5H8ZM22.2938 19.592H23.7805V17.1708H17.6425V19.592H19.6389V25.369H19.554L12.5876 17.1708H8.82832V19.592H10.5487V28.5549H9.06195V30.9761H15.115V28.5549H13.2035V22.2257H13.2885L20.7009 30.9973L22.2938 30.9761V19.592Z" fill="#1CD17D"/>
<path d="M25.8743 35.5V11.5H39V35.5H25.8743ZM34.3699 23.4788V28.8947H33.0956V30.9761H38.3841V28.8947H37.1097V21.3973H30.6956V19.8894C30.6956 19.4788 30.8088 19.0965 31.0354 18.7425C31.2761 18.3885 31.8142 18.2115 32.6496 18.2115C33.0602 18.2115 33.4071 18.254 33.6903 18.3389C33.9876 18.4097 34.1858 18.4593 34.285 18.4876L34.6885 19.8469L36.8124 19.6133L36.3876 17.0221C35.7646 16.6965 35.1203 16.4699 34.4549 16.3425C33.7894 16.215 33.1876 16.1513 32.6496 16.1513C31.1062 16.1513 29.9381 16.5336 29.1451 17.2982C28.3522 18.0628 27.9557 18.9407 27.9557 19.9319V21.3973H26.7876V23.4788H27.9557V28.8947H26.6814V30.9761H32.2885V28.8947H30.6956V23.4788H34.3699Z" fill="#222222"/>
<path d="M25.8743 35.5V11.5H39V35.5H25.8743ZM34.3699 23.4788V28.8947H33.0956V30.9761H38.3841V28.8947H37.1097V21.3973H30.6956V19.8894C30.6956 19.4788 30.8088 19.0965 31.0354 18.7425C31.2761 18.3885 31.8142 18.2115 32.6496 18.2115C33.0602 18.2115 33.4071 18.254 33.6903 18.3389C33.9876 18.4097 34.1858 18.4593 34.285 18.4876L34.6885 19.8469L36.8124 19.6133L36.3876 17.0221C35.7646 16.6965 35.1203 16.4699 34.4549 16.3425C33.7894 16.215 33.1876 16.1513 32.6496 16.1513C31.1062 16.1513 29.9381 16.5336 29.1451 17.2982C28.3522 18.0628 27.9557 18.9407 27.9557 19.9319V21.3973H26.7876V23.4788H27.9557V28.8947H26.6814V30.9761H32.2885V28.8947H30.6956V23.4788H34.3699Z" fill="#1CD17D"/>
</svg>
